<?xml version="1.0" standalone="no"?>
<!DOCTYPE svg PUBLIC "-//W3C//DTD SVG 20010904//EN"
 "http://www.w3.org/TR/2001/REC-SVG-20010904/DTD/svg10.dtd">
<svg version="1.0" xmlns="http://www.w3.org/2000/svg"
 width="1240.000000pt" height="1748.000000pt" viewBox="0 0 1240.000000 1748.000000"
 preserveAspectRatio="xMidYMid meet">
<metadata>
Created by potrace 1.15, written by Peter Selinger 2001-2017
</metadata>
<g transform="translate(0.000000,1748.000000) scale(0.100000,-0.100000)"
fill="#000000" stroke="none">
<path d="M5904 17164 c-6 -45 -6 -45 -26 -25 -58 64 -162 -40 -114 -114 20
-31 63 -33 94 -5 l22 21 0 -21 c0 -11 4 -20 8 -20 5 0 14 35 21 78 7 42 15 89
18 105 3 16 1 27 -5 27 -6 0 -14 -21 -18 -46z"/>
<path d="M5435 17148 c-33 -18 -45 -40 -45 -85 0 -32 5 -45 19 -53 35 -18 71
-11 102 19 68 68 7 165 -76 119z"/>
<path d="M1430 15355 l0 -735 2845 0 2845 0 0 735 0 735 -2845 0 -2845 0 0
-735z m3524 450 c121 -20 228 -123 261 -250 53 -207 -55 -400 -255 -451 -163
-41 -330 34 -406 183 -27 54 -29 66 -29 168 0 106 1 112 34 173 55 101 146
166 254 182 52 8 67 7 141 -5z m-737 -10 c93 -28 167 -98 204 -194 l19 -51
-93 0 c-92 0 -93 0 -110 30 -27 45 -89 73 -152 68 -85 -7 -137 -64 -150 -164
-27 -198 162 -306 291 -168 l41 44 80 0 c44 0 82 -3 86 -6 9 -9 -20 -81 -52
-128 -35 -50 -106 -101 -165 -118 -62 -18 -183 -15 -243 5 -69 24 -145 93
-180 164 -22 46 -28 74 -31 148 -9 190 66 313 221 366 64 22 166 24 234 4z
m-2312 -92 c10 -54 30 -165 44 -248 l28 -150 59 245 60 245 96 3 96 3 58 -242
c39 -162 61 -235 66 -222 4 10 24 110 43 223 20 113 38 213 41 223 5 14 18 17
95 17 56 0 89 -4 89 -11 0 -6 -36 -161 -80 -345 -44 -184 -80 -337 -80 -340 0
-2 -49 -4 -108 -4 l-108 0 -56 232 -55 232 -48 -198 c-26 -108 -51 -213 -57
-232 l-9 -35 -107 3 -106 3 -78 325 c-42 179 -80 335 -83 347 -5 23 -4 23 89
23 l94 0 17 -97z m1305 32 l0 -65 -135 0 -135 0 0 -75 0 -75 120 0 120 0 0
-65 0 -65 -120 0 -120 0 0 -75 0 -75 135 0 135 0 0 -70 0 -70 -220 0 -220 0 0
350 0 350 220 0 220 0 0 -65z m270 -220 l0 -285 115 0 115 0 0 -65 0 -65 -200
0 -200 0 0 350 0 350 85 0 85 0 0 -285z m2095 163 c26 -68 69 -177 95 -242
l47 -119 21 54 c17 47 138 363 157 412 6 15 21 17 111 17 l104 0 0 -350 0
-350 -85 0 -85 0 -2 210 -3 210 -54 -157 c-30 -87 -63 -182 -73 -211 l-20 -53
-75 3 -76 3 -71 205 -71 205 -3 -207 -2 -208 -85 0 -85 0 0 350 0 350 104 0
104 0 47 -122z m1095 57 l0 -65 -135 0 -135 0 0 -75 0 -75 120 0 120 0 0 -65
0 -65 -120 0 -120 0 0 -75 0 -75 135 0 135 0 0 -70 0 -70 -220 0 -220 0 0 350
0 350 220 0 220 0 0 -65z"/>
<path d="M4784 15631 c-91 -55 -119 -182 -65 -289 47 -92 181 -117 266 -50 93
73 85 270 -14 335 -45 30 -141 32 -187 4z"/>
<path d="M2500 13807 c-91 -26 -173 -97 -213 -186 -17 -36 -21 -66 -21 -136 0
-108 19 -159 89 -234 64 -68 128 -95 230 -96 102 0 163 23 231 87 74 70 98
129 99 243 0 79 -4 97 -28 146 -32 66 -100 132 -163 160 -57 25 -165 33 -224
16z m174 -165 c57 -33 71 -65 71 -157 0 -69 -4 -88 -21 -111 -39 -53 -70 -69
-134 -69 -64 0 -95 16 -134 68 -24 33 -34 138 -17 190 30 90 147 130 235 79z"/>
<path d="M8463 13806 c-61 -20 -103 -54 -124 -100 -51 -112 3 -216 138 -265
127 -46 163 -70 163 -108 0 -23 -39 -53 -68 -53 -31 0 -72 36 -72 63 0 15 -12
17 -91 17 l-91 0 7 -32 c23 -107 125 -178 254 -178 174 0 278 137 210 277 -26
54 -55 75 -160 115 -116 43 -129 53 -129 94 0 27 5 37 24 45 37 17 76 3 89
-31 l11 -30 89 0 89 0 -7 33 c-10 51 -56 109 -106 134 -57 30 -166 39 -226 19z"/>
<path d="M1620 13800 c0 -6 50 -106 110 -221 l110 -211 0 -104 0 -104 80 0 80
0 0 105 0 106 108 207 c59 114 108 213 110 219 3 10 -19 13 -86 13 l-89 0 -59
-125 c-32 -69 -61 -125 -64 -125 -3 0 -32 56 -64 125 l-59 125 -88 0 c-56 0
-89 -4 -89 -10z"/>
<path d="M3002 13568 c3 -214 5 -247 22 -278 44 -84 115 -130 211 -138 93 -7
168 18 226 76 71 71 79 110 79 369 l0 213 -79 0 -79 0 -4 -212 c-3 -219 -8
-245 -47 -275 -20 -15 -95 -17 -122 -3 -43 24 -49 57 -49 280 l0 210 -81 0
-80 0 3 -242z"/>
<path d="M3600 13745 l0 -65 85 0 85 0 0 -260 0 -260 85 0 85 0 0 260 0 260
85 0 85 0 0 65 0 65 -255 0 -255 0 0 -65z"/>
<path d="M4160 13485 l0 -325 80 0 80 0 0 135 0 135 120 0 120 0 0 -135 0
-135 80 0 80 0 0 325 0 325 -80 0 -80 0 0 -125 0 -125 -120 0 -120 0 0 125 0
125 -80 0 -80 0 0 -325z"/>
<path d="M5010 13485 l0 -325 185 0 185 0 0 60 0 60 -105 0 -105 0 0 265 0
265 -80 0 -80 0 0 -325z"/>
<path d="M5450 13485 l0 -325 205 0 205 0 0 65 0 65 -125 0 -125 0 0 65 0 65
110 0 110 0 0 65 0 65 -110 0 -110 0 0 65 0 65 125 0 125 0 0 65 0 65 -205 0
-205 0 0 -325z"/>
<path d="M6600 13485 l0 -327 183 4 c175 3 184 4 232 30 112 59 168 152 169
283 2 147 -51 238 -171 297 -67 33 -68 33 -240 36 l-173 4 0 -327z m346 149
c52 -39 68 -70 72 -142 5 -121 -53 -180 -189 -190 l-69 -5 0 183 0 182 79 -3
c61 -3 86 -9 107 -25z"/>
<path d="M7270 13485 l0 -325 205 0 205 0 0 65 0 65 -125 0 -125 0 0 65 0 65
110 0 110 0 0 65 0 65 -110 0 -110 0 0 65 0 65 125 0 125 0 0 65 0 65 -205 0
-205 0 0 -325z"/>
<path d="M7760 13486 l0 -326 80 0 80 0 0 120 c0 161 12 161 100 4 36 -64 70
-118 76 -121 6 -2 47 -3 92 -1 l81 3 -74 122 -74 122 45 22 c108 52 137 204
57 300 -54 63 -89 73 -285 77 l-178 4 0 -326z m303 173 c30 -16 37 -28 37 -70
0 -54 -27 -73 -111 -77 l-69 -4 0 81 0 81 61 0 c33 0 70 -5 82 -11z"/>
<path d="M6125 13788 c-3 -7 -56 -151 -119 -320 l-113 -308 87 0 86 0 18 55
17 56 121 -3 121 -3 17 -50 17 -50 88 -3 c68 -2 86 0 83 10 -3 7 -56 151 -118
321 l-113 307 -94 0 c-66 0 -95 -4 -98 -12z m138 -285 l37 -103 -75 0 c-41 0
-75 1 -75 3 0 3 55 169 65 196 7 19 8 18 48 -96z"/>
<path d="M8524 9908 c3 -18 8 -112 11 -208 3 -96 8 -217 12 -267 l6 -93 87 0
87 0 7 163 c3 89 9 224 13 300 l6 137 -117 0 -117 0 5 -32z"/>
<path d="M4675 9909 c-127 -19 -255 -111 -313 -225 -93 -186 -59 -409 83 -543
96 -90 201 -127 341 -118 160 10 288 96 360 242 32 66 37 86 42 170 4 73 1
111 -13 161 -59 217 -266 347 -500 313z m182 -214 c88 -44 130 -136 121 -258
-8 -97 -47 -160 -123 -200 -56 -29 -155 -28 -213 1 -100 52 -146 189 -107 320
42 139 190 202 322 137z"/>
<path d="M7928 9909 c-111 -16 -201 -83 -227 -168 -19 -64 -14 -132 14 -188
39 -77 69 -96 272 -173 84 -32 133 -72 133 -110 0 -34 -22 -68 -51 -80 -58
-25 -124 8 -148 73 l-11 27 -111 0 -111 0 7 -32 c33 -150 158 -238 339 -238
138 0 233 48 280 141 51 104 24 240 -61 305 -20 15 -93 49 -162 76 -146 55
-187 88 -177 142 8 41 40 66 85 66 45 0 74 -19 91 -60 l12 -30 113 0 113 0 -9
41 c-14 61 -33 92 -85 138 -70 61 -186 88 -306 70z"/>
<path d="M3977 9893 c-4 -3 -7 -150 -7 -325 l0 -319 -26 -26 c-21 -21 -32 -24
-61 -20 -48 8 -71 31 -80 81 l-9 41 -103 3 -104 3 7 -58 c9 -84 48 -157 105
-198 60 -44 118 -60 213 -59 91 1 172 35 214 89 50 66 54 101 54 462 l0 333
-98 0 c-54 0 -102 -3 -105 -7z"/>
<path d="M5320 9460 l0 -440 100 0 100 0 0 440 0 440 -100 0 -100 0 0 -440z"/>
<path d="M5680 9460 l0 -440 100 0 100 0 0 265 c0 146 3 265 8 265 4 0 85
-119 181 -265 l173 -265 104 0 104 0 0 440 0 440 -105 0 -105 0 -2 -270 -3
-269 -175 269 -175 270 -102 0 -103 0 0 -440z"/>
<path d="M6840 9621 c0 -294 5 -350 42 -428 80 -171 320 -232 511 -131 65 35
97 68 133 139 35 70 44 154 44 442 l0 257 -105 0 -105 0 0 -266 c0 -300 -6
-339 -56 -384 -85 -74 -227 -34 -248 70 -3 18 -6 156 -6 306 l0 274 -105 0
-105 0 0 -279z"/>
<path d="M8530 9125 l0 -105 110 0 110 0 0 105 0 105 -110 0 -110 0 0 -105z"/>
<path d="M1430 7445 l0 -735 3820 0 3820 0 0 735 0 735 -3820 0 -3820 0 0
-735z m714 430 c121 -20 228 -123 261 -250 53 -207 -55 -400 -255 -451 -163
-41 -330 34 -406 183 -27 54 -29 66 -29 168 0 106 1 112 34 173 55 101 146
166 254 182 52 8 67 7 141 -5z m6367 -22 c63 -28 116 -77 145 -134 39 -77 37
-79 -65 -79 -82 0 -90 2 -104 24 -38 57 -164 74 -225 29 -108 -80 -108 -266 1
-347 34 -25 143 -34 187 -16 34 14 90 73 90 95 0 12 -19 15 -105 15 l-106 0 3
63 3 62 178 3 177 2 0 -90 c0 -108 -12 -142 -74 -208 -178 -190 -512 -122
-590 120 -20 64 -21 188 -1 256 28 93 112 180 207 214 71 25 213 21 279 -9z
m-5618 6 c49 -13 105 -63 128 -114 24 -53 24 -147 0 -201 -22 -49 -78 -97
-130 -113 -21 -6 -77 -11 -125 -11 l-86 0 0 -125 0 -125 -85 0 -85 0 0 350 0
350 173 0 c94 0 189 -5 210 -11z m677 -54 l0 -65 -135 0 -135 0 0 -75 0 -75
120 0 120 0 0 -65 0 -65 -120 0 -120 0 0 -75 0 -75 135 0 135 0 0 -70 0 -70
-220 0 -220 0 0 350 0 350 220 0 220 0 0 -65z m400 -145 l135 -208 3 209 2
209 85 0 85 0 0 -350 0 -350 -83 0 -84 0 -141 213 -142 212 0 -212 0 -213 -85
0 -85 0 0 350 0 350 88 -1 87 0 135 -209z m1077 189 c64 -31 93 -79 93 -154 0
-69 -22 -114 -70 -143 l-30 -19 37 -24 c112 -72 109 -239 -5 -307 -47 -27 -49
-27 -259 -30 l-213 -3 0 350 0 351 202 0 c185 0 205 -2 245 -21z m373 -329 l0
-350 -85 0 -85 0 0 350 0 350 85 0 85 0 0 -350z m561 319 c71 -33 125 -87 158
-158 23 -49 26 -69 26 -161 0 -95 -3 -111 -28 -162 -33 -67 -90 -121 -166
-157 -53 -25 -65 -26 -243 -29 l-188 -4 0 352 0 352 193 -4 c183 -3 195 -4
248 -29z m730 0 c71 -33 125 -87 158 -158 23 -49 26 -69 26 -161 0 -95 -3
-111 -28 -162 -33 -67 -90 -121 -166 -157 -53 -25 -65 -26 -243 -29 l-188 -4
0 352 0 352 193 -4 c183 -3 195 -4 248 -29z m459 -319 l0 -350 -85 0 -85 0 0
350 0 350 85 0 85 0 0 -350z m430 140 l135 -208 3 209 2 209 85 0 85 0 0 -350
0 -350 -83 0 -84 0 -141 213 -142 212 0 -212 0 -213 -85 0 -85 0 0 350 0 350
88 -1 87 0 135 -209z"/>
<path d="M1974 7701 c-91 -55 -119 -182 -65 -289 47 -92 181 -117 266 -50 93
73 85 270 -14 335 -45 30 -141 32 -187 4z"/>
<path d="M2680 7640 l0 -90 48 1 c108 1 156 44 133 120 -15 49 -34 59 -115 59
l-66 0 0 -90z"/>
<path d="M4770 7665 l0 -76 81 3 c76 3 83 5 102 30 17 22 18 33 11 60 -12 40
-51 57 -136 57 l-58 1 0 -75z"/>
<path d="M4770 7389 l0 -81 91 4 c76 2 93 6 105 22 17 25 18 76 1 100 -15 21
-74 35 -144 36 l-53 0 0 -81z"/>
<path d="M5710 7520 l0 -200 45 0 c84 0 147 20 186 59 54 53 70 125 48 206
-26 94 -88 134 -206 135 l-73 0 0 -200z"/>
<path d="M6440 7520 l0 -200 45 0 c84 0 147 20 186 59 54 53 70 125 48 206
-26 94 -88 134 -206 135 l-73 0 0 -200z"/>
<path d="M5316 5786 c-61 -23 -89 -47 -118 -106 -45 -87 -32 -205 30 -273 68
-75 215 -85 300 -20 53 40 72 79 72 151 l0 62 -115 0 -115 0 0 -40 0 -40 71 0
71 0 -14 -22 c-8 -13 -31 -31 -51 -41 -30 -15 -43 -16 -76 -7 -58 15 -81 50
-81 122 0 52 3 63 29 89 39 38 96 40 139 4 24 -20 41 -25 87 -25 48 0 56 3 51
16 -3 9 -6 20 -6 24 0 16 -62 80 -91 96 -43 22 -137 27 -183 10z"/>
<path d="M6983 5781 c-104 -48 -96 -186 15 -232 26 -11 64 -27 85 -36 30 -13
37 -21 37 -44 0 -49 -69 -48 -85 1 -5 17 -15 20 -66 20 -68 0 -75 -13 -36 -70
30 -46 75 -70 139 -76 134 -13 223 113 148 209 -11 13 -50 37 -87 52 -85 35
-112 58 -97 83 18 28 51 27 70 -2 14 -23 23 -26 76 -26 l60 0 -7 27 c-24 96
-146 141 -252 94z"/>
<path d="M1640 5570 l0 -220 135 0 c151 0 184 9 210 60 26 51 20 97 -20 137
-26 26 -31 35 -19 40 39 15 57 110 28 151 -30 43 -64 52 -204 52 l-130 0 0
-220z"/>
<path d="M2125 5633 c-32 -87 -69 -186 -82 -221 l-23 -63 62 3 c60 3 61 4 73
38 l12 35 80 3 80 3 12 -41 12 -40 60 0 c57 0 60 1 54 21 -4 12 -40 110 -80
218 l-72 196 -65 3 -65 3 -58 -158z"/>
<path d="M2500 5570 l0 -222 134 4 c131 3 135 4 178 33 63 45 91 102 91 185 0
83 -28 140 -91 185 -43 29 -47 30 -178 33 l-134 4 0 -222z m252 91 c30 -27 33
-34 33 -90 0 -52 -4 -64 -27 -87 -21 -21 -39 -28 -82 -32 l-56 -4 0 121 0 121
50 0 c41 0 56 -5 82 -29z"/>
<path d="M3035 5633 c-32 -87 -69 -186 -82 -221 l-23 -63 62 3 c60 3 61 4 73
38 l12 35 80 3 80 3 12 -41 12 -40 60 0 c57 0 60 1 54 21 -4 12 -40 110 -80
218 l-72 196 -65 3 -65 3 -58 -158z"/>
<path d="M3410 5570 l0 -220 60 0 59 0 3 122 3 121 80 -121 80 -122 58 0 57 0
0 220 0 220 -55 0 -55 0 0 -132 0 -133 -86 133 -86 132 -59 0 -59 0 0 -220z"/>
<path d="M4000 5570 l0 -220 60 0 60 0 0 75 0 75 50 0 c64 0 109 19 143 59 35
41 38 118 7 169 -30 50 -71 62 -205 62 l-115 0 0 -220z"/>
<path d="M4390 5570 l0 -220 140 0 140 0 0 45 0 45 -80 0 -80 0 0 45 0 45 76
0 75 0 -3 43 -3 42 -72 3 -73 3 0 39 0 40 80 0 80 0 0 45 0 45 -140 0 -140 0
0 -220z"/>
<path d="M4720 5570 l0 -220 60 0 59 0 3 122 3 121 80 -121 80 -122 58 0 57 0
0 220 0 220 -55 0 -55 0 0 -132 0 -133 -86 133 -86 132 -59 0 -59 0 0 -220z"/>
<path d="M5660 5638 c0 -127 4 -160 19 -194 57 -126 238 -138 325 -21 19 26
21 44 24 198 l3 169 -55 0 -56 0 0 -144 c0 -130 -2 -146 -21 -170 -25 -31 -66
-34 -100 -7 -23 18 -24 26 -27 170 l-4 151 -54 0 -54 0 0 -152z"/>
<path d="M6090 5570 l0 -220 60 0 60 0 0 80 c0 44 4 80 8 80 5 0 28 -36 53
-80 l44 -80 63 0 c34 0 62 2 62 4 0 3 -22 41 -50 85 -45 73 -48 80 -30 86 10
3 33 22 49 41 57 64 35 171 -42 207 -27 13 -64 17 -156 17 l-121 0 0 -220z"/>
<path d="M6490 5638 c0 -127 4 -160 19 -194 57 -126 238 -138 325 -21 19 26
21 44 24 198 l3 169 -55 0 -56 0 0 -144 c0 -130 -2 -146 -21 -170 -25 -31 -66
-34 -100 -7 -23 18 -24 26 -27 170 l-4 151 -54 0 -54 0 0 -152z"/>
<path d="M7420 5570 l0 -220 60 0 60 0 0 90 0 90 80 0 80 0 0 -90 0 -90 55 0
55 0 0 220 0 220 -55 0 -55 0 0 -85 0 -85 -80 0 -80 0 0 85 0 85 -60 0 -60 0
0 -220z"/>
<path d="M7945 5633 c-32 -87 -69 -186 -82 -221 l-23 -63 62 3 c60 3 61 4 73
38 l12 35 80 3 80 3 12 -41 12 -40 60 0 c57 0 60 1 54 21 -4 12 -40 110 -80
218 l-72 196 -65 3 -65 3 -58 -158z"/>
<path d="M8320 5570 l0 -220 60 0 60 0 0 80 c0 44 4 80 8 80 5 0 28 -36 53
-80 l44 -80 63 0 c34 0 62 2 62 4 0 3 -22 41 -50 85 -45 73 -48 80 -30 86 10
3 33 22 49 41 57 64 35 171 -42 207 -27 13 -64 17 -156 17 l-121 0 0 -220z"/>
<path d="M8720 5570 l0 -220 60 0 60 0 0 220 0 220 -60 0 -60 0 0 -220z"/>
<path d="M8975 5633 c-32 -87 -69 -186 -82 -221 l-23 -63 62 3 c60 3 61 4 73
38 l12 35 80 3 80 3 12 -41 12 -40 60 0 c57 0 60 1 54 21 -4 12 -40 110 -80
218 l-72 196 -65 3 -65 3 -58 -158z"/>
<path d="M9350 5570 l0 -220 60 0 59 0 3 122 3 121 80 -121 80 -122 58 0 57 0
0 220 0 220 -55 0 -55 0 0 -132 0 -133 -86 133 -86 132 -59 0 -59 0 0 -220z"/>
<path d="M2594 1083 c-22 -96 -13 -88 -87 -91 l-67 -3 0 -59 0 -60 56 0 c45 0
55 -3 51 -14 -3 -8 -9 -31 -13 -50 l-6 -36 -69 0 -69 0 0 -55 0 -55 56 0 56 0
-7 -37 c-4 -21 -9 -50 -12 -65 -5 -28 -5 -28 53 -28 l59 0 15 63 15 62 59 3
c32 2 62 -1 67 -5 4 -4 2 -34 -6 -66 l-13 -58 61 3 61 3 11 50 c16 72 19 75
81 75 l54 0 0 55 0 55 -46 0 -47 0 7 38 c3 20 6 43 6 50 0 8 20 12 65 12 l65
0 0 60 0 60 -51 0 c-43 0 -50 2 -45 18 3 9 9 36 15 60 l9 43 -61 -3 c-53 -3
-62 -6 -65 -23 -2 -11 -8 -37 -13 -57 l-10 -38 -66 0 -65 0 7 46 c3 26 9 53
12 60 4 11 -8 14 -56 14 -58 0 -61 -1 -67 -27z"/>
<path d="M7816 1089 c-75 -18 -126 -73 -141 -152 l-7 -37 66 0 c64 0 66 1 66
25 0 30 32 65 60 65 11 0 30 -10 41 -21 51 -51 -7 -155 -149 -269 -82 -65 -82
-65 -82 -112 l0 -48 195 0 195 0 0 50 0 50 -107 0 -107 0 76 70 c91 84 128
149 128 225 0 114 -107 184 -234 154z"/>
<path d="M8776 1089 c-75 -18 -126 -73 -141 -152 l-7 -37 66 0 c64 0 66 1 66
25 0 30 32 65 60 65 11 0 30 -10 41 -21 51 -51 -7 -155 -149 -269 -82 -65 -82
-65 -82 -112 l0 -48 195 0 195 0 0 50 0 50 -107 0 -107 0 76 70 c91 84 128
149 128 225 0 114 -107 184 -234 154z"/>
<path d="M6495 1067 c-89 -43 -138 -107 -156 -201 -33 -181 92 -337 270 -335
36 0 80 6 98 12 60 22 117 72 148 128 26 48 30 63 29 139 0 90 -15 134 -67
196 -66 78 -224 108 -322 61z m196 -120 c64 -43 85 -132 51 -210 -26 -58 -70
-87 -132 -87 -89 0 -144 61 -144 160 0 66 23 113 67 140 45 28 115 26 158 -3z"/>
<path d="M8238 1070 c-73 -39 -108 -122 -108 -255 0 -211 99 -311 272 -274
112 24 164 124 156 299 -9 175 -74 251 -218 250 -44 -1 -77 -7 -102 -20z m146
-106 c56 -21 69 -236 17 -287 -29 -29 -90 -26 -117 7 -46 53 -41 229 7 269 21
17 64 22 93 11z"/>
<path d="M9188 1070 c-73 -39 -108 -122 -108 -255 0 -211 99 -311 272 -274
112 24 164 124 156 299 -9 175 -74 251 -218 250 -44 -1 -77 -7 -102 -20z m146
-106 c56 -21 69 -236 17 -287 -29 -29 -90 -26 -117 7 -46 53 -41 229 7 269 21
17 64 22 93 11z"/>
<path d="M3120 804 l0 -276 163 3 c140 4 167 7 196 24 53 31 75 68 75 124 0
55 -21 95 -63 119 l-28 16 38 36 c36 34 39 41 39 92 0 42 -5 62 -22 83 -37 47
-72 55 -243 55 l-155 0 0 -276z m272 159 c10 -9 18 -29 18 -44 0 -45 -23 -59
-96 -59 l-64 0 0 60 0 60 62 0 c43 0 67 -5 80 -17z m15 -215 c22 -23 21 -77
-2 -94 -12 -9 -45 -14 -87 -14 l-68 0 0 66 0 66 70 -4 c48 -2 75 -9 87 -20z"/>
<path d="M3630 805 l0 -275 170 0 170 0 0 50 0 50 -105 0 -105 0 0 70 0 70 95
0 95 0 0 45 0 45 -95 0 -95 0 0 60 0 60 105 0 105 0 0 50 0 50 -170 0 -170 0
0 -275z"/>
<path d="M4060 805 l0 -275 65 0 65 0 2 172 3 171 59 -171 59 -172 57 0 56 0
59 173 60 172 3 -172 2 -173 65 0 65 0 0 275 0 276 -81 -3 -81 -3 -71 -187
c-39 -103 -75 -184 -79 -180 -4 4 -38 88 -77 187 l-69 180 -81 3 -81 3 0 -276z"/>
<path d="M4780 805 l0 -275 65 0 65 0 0 115 0 115 85 0 85 0 0 45 0 45 -85 0
-85 0 0 65 0 65 115 0 115 0 0 50 0 50 -180 0 -180 0 0 -275z"/>
<path d="M5210 805 l0 -275 65 0 65 0 0 275 0 275 -65 0 -65 0 0 -275z"/>
<path d="M5440 805 l0 -275 155 0 155 0 0 50 0 50 -90 0 -90 0 0 225 0 225
-65 0 -65 0 0 -275z"/>
<path d="M5810 805 l0 -275 65 0 64 0 3 124 3 125 94 -125 94 -124 79 0 79 0
-77 97 c-43 54 -93 116 -111 139 -18 23 -33 44 -33 48 0 3 47 63 105 134 l106
127 -73 3 c-84 4 -71 13 -195 -148 l-73 -93 0 121 0 122 -65 0 -65 0 0 -275z"/>
<path d="M6980 805 l0 -275 65 0 65 0 2 172 3 171 59 -171 59 -172 57 0 56 0
59 173 60 172 3 -172 2 -173 65 0 65 0 0 275 0 276 -81 -3 -81 -3 -71 -187
c-39 -103 -75 -184 -79 -180 -4 4 -38 88 -77 187 l-69 180 -81 3 -81 3 0 -276z"/>
</g>
</svg>
